<svg width="40" height="40" viewBox="0 0 40 40" fill="none" xmlns="http://www.w3.org/2000/svg">
<path d="M20.0002 3.74463C16.0427 3.74479 12.2143 5.15315 9.20015 7.71771C6.18599 10.2823 4.18271 13.8357 3.54876 17.7421C2.91482 21.6485 3.69157 25.6531 5.74004 29.0392C7.78851 32.4254 10.975 34.9721 14.7294 36.2238C15.5627 36.3696 15.8752 35.8697 15.8752 35.4321C15.8752 35.0363 15.8544 33.7238 15.8544 32.328C11.6669 33.0988 10.5835 31.3072 10.2502 30.3697C9.88033 29.4579 9.294 28.6499 8.54187 28.0155C7.95854 27.703 7.12521 26.9321 8.52102 26.9113C9.054 26.9692 9.56519 27.1546 10.0113 27.452C10.4573 27.7494 10.8251 28.1499 11.0835 28.6196C11.3115 29.0291 11.618 29.3896 11.9855 29.6804C12.353 29.9713 12.7743 30.1867 13.2253 30.3145C13.6762 30.4422 14.1479 30.4797 14.6133 30.4248C15.0788 30.3699 15.5288 30.2237 15.9377 29.9946C16.0098 29.1473 16.3874 28.3551 17.0002 27.7655C13.2919 27.3488 9.41687 25.9113 9.41687 19.5363C9.39345 17.8799 10.0047 16.2773 11.1252 15.0572C10.6157 13.6175 10.6753 12.0377 11.2919 10.6405C11.2919 10.6405 12.6877 10.203 15.8752 12.3488C18.6024 11.5988 21.4814 11.5988 24.2085 12.3488C27.396 10.1822 28.7919 10.6405 28.7919 10.6405C29.4085 12.0376 29.4682 13.6176 28.9585 15.0572C30.0824 16.2752 30.6942 17.8792 30.6669 19.5363C30.6669 25.9321 26.771 27.3488 23.0627 27.7655C23.4605 28.1687 23.7668 28.6527 23.9609 29.1847C24.155 29.7167 24.2324 30.2843 24.1877 30.8488C24.1877 33.078 24.1669 34.8696 24.1669 35.4322C24.1669 35.8697 24.4794 36.3905 25.3127 36.2238C29.0605 34.962 32.2378 32.4092 34.2776 29.0214C36.3173 25.6335 37.0867 21.631 36.4483 17.7284C35.81 13.8257 33.8055 10.2769 30.7927 7.71548C27.7798 5.15405 23.9547 3.74669 20.0002 3.74463Z" fill="black"/>
</svg>
