<svg width="40" height="40" viewBox="0 0 40 40" fill="none" xmlns="http://www.w3.org/2000/svg">
<g clip-path="url(#clip0_170_118)">
<path d="M37.7778 0H2.22222C0.994923 0 0 0.994923 0 2.22222V37.7778C0 39.0051 0.994923 40 2.22222 40H37.7778C39.0051 40 40 39.0051 40 37.7778V2.22222C40 0.994923 39.0051 0 37.7778 0Z" fill="#117EB8"/>
<path fill-rule="evenodd" clip-rule="evenodd" d="M7.29925 15.471H12.6454V32.6721H7.29925V15.471ZM9.97314 6.92048C11.6826 6.92048 13.0715 8.30937 13.0715 10.0188C13.0715 11.7299 11.6826 13.1194 9.97314 13.1194C9.56118 13.1272 9.15179 13.0528 8.76892 12.9005C8.38605 12.7482 8.03737 12.5212 7.74327 12.2326C7.44917 11.944 7.21555 11.5997 7.05607 11.2198C6.89659 10.8399 6.81445 10.432 6.81445 10.0199C6.81445 9.60788 6.89659 9.19998 7.05607 8.82006C7.21555 8.44014 7.44917 8.09582 7.74327 7.80724C8.03737 7.51866 8.38605 7.2916 8.76892 7.13934C9.15179 6.98708 9.56118 6.91268 9.97314 6.92048ZM15.9987 15.4705H21.1265V17.821H21.1976C21.9115 16.4688 23.6554 15.0433 26.2559 15.0433C31.6693 15.0433 32.6693 18.606 32.6693 23.2377V32.6721H27.3265V24.3071C27.3265 22.3127 27.2898 19.7466 24.5487 19.7466C21.767 19.7466 21.3398 21.9194 21.3398 24.1633V32.6721H15.9981V15.471L15.9987 15.4705Z" fill="white"/>
</g>
<defs>
<clipPath id="clip0_170_118">
<rect width="40" height="40" fill="white"/>
</clipPath>
</defs>
</svg>
