<svg width="40" height="40" viewBox="0 0 40 40" fill="none" xmlns="http://www.w3.org/2000/svg">
<g clip-path="url(#clip0_170_123)">
<mask id="mask0_170_123" style="mask-type:luminance" maskUnits="userSpaceOnUse" x="0" y="0" width="40" height="40">
<path d="M40 0H0V40H40V0Z" fill="white"/>
</mask>
<g mask="url(#mask0_170_123)">
<path d="M35.3125 0H4.6875C2.09867 0 0 2.09867 0 4.6875V35.3125C0 37.9013 2.09867 40 4.6875 40H35.3125C37.9013 40 40 37.9013 40 35.3125V4.6875C40 2.09867 37.9013 0 35.3125 0Z" fill="black"/>
<path d="M27.8048 7.8125H31.9398L22.9061 18.1375L33.5336 32.1875H25.2123L18.6948 23.6663L11.2373 32.1875H7.09988L16.7623 21.1438L6.56738 7.8125H15.0998L20.9911 15.6012L27.8048 7.8125ZM26.3536 29.7125H28.6448L13.8548 10.1575H11.3961L26.3536 29.7125Z" fill="white"/>
</g>
</g>
<defs>
<clipPath id="clip0_170_123">
<rect width="40" height="40" fill="white"/>
</clipPath>
</defs>
</svg>
