<svg width="22" height="22" viewBox="0 0 22 22" fill="none" xmlns="http://www.w3.org/2000/svg">
<path d="M19.0255 17.7706C19.0302 17.7636 19.0372 17.7565 19.0419 17.7495C20.577 15.9237 21.5005 13.5706 21.5005 10.9995C21.5005 8.42842 20.5771 6.07529 19.0442 4.24951C19.0396 4.24248 19.0325 4.23779 19.0278 4.23076C19.0021 4.20029 18.9786 4.17217 18.9528 4.14404C18.9435 4.13232 18.9341 4.12295 18.9247 4.11123L18.8286 4.00107L18.8263 3.99873C18.7911 3.95889 18.7536 3.91904 18.7185 3.8792L18.7161 3.87686C18.6411 3.79717 18.5661 3.71748 18.4888 3.64014L18.4864 3.63779L18.3739 3.52529L18.3669 3.51826C18.3317 3.48311 18.2966 3.45029 18.2614 3.41748C18.2497 3.40576 18.238 3.39404 18.2239 3.38232C18.2005 3.35889 18.1771 3.33779 18.1536 3.3167C18.1466 3.30967 18.1372 3.30264 18.1302 3.29326C16.2599 1.55889 13.7544 0.499512 11.0005 0.499512C8.24658 0.499512 5.74111 1.55889 3.86846 3.29326C3.86143 3.30029 3.85205 3.30732 3.84502 3.3167C3.82158 3.33779 3.79814 3.36123 3.77471 3.38467C3.76299 3.39639 3.75127 3.40811 3.73721 3.41982C3.70205 3.45264 3.66689 3.48779 3.63174 3.52061L3.62471 3.52764L3.51221 3.64014L3.50986 3.64248C3.43252 3.71982 3.35752 3.79951 3.28252 3.8792L3.28018 3.88154C3.24268 3.92139 3.20752 3.96123 3.17236 4.00107L3.17002 4.00342C3.13721 4.03857 3.10439 4.07607 3.07393 4.11357C3.06455 4.12529 3.05518 4.13467 3.0458 4.14639C3.02002 4.17451 2.99658 4.20498 2.9708 4.23311C2.96611 4.24014 2.95908 4.24482 2.95439 4.25186C1.42393 6.07529 0.500488 8.42842 0.500488 10.9995C0.500488 13.5706 1.42393 15.9237 2.95674 17.7495C2.96143 17.7565 2.96846 17.7636 2.97314 17.7706L3.0458 17.8573C3.05518 17.869 3.06455 17.8784 3.07393 17.8901L3.17002 18.0003C3.17002 18.0026 3.17236 18.0026 3.17236 18.005C3.20752 18.0448 3.24268 18.0847 3.28018 18.1222L3.28252 18.1245C3.35752 18.2042 3.43252 18.2839 3.50752 18.3612L3.50986 18.3636C3.54736 18.4011 3.58252 18.4386 3.62002 18.4737L3.62705 18.4808C3.70439 18.5581 3.78408 18.6331 3.86377 18.7058C5.74111 20.4401 8.24658 21.4995 11.0005 21.4995C13.7544 21.4995 16.2599 20.4401 18.1325 18.7058C18.2124 18.6326 18.2905 18.5576 18.3669 18.4808L18.3739 18.4737C18.4114 18.4362 18.4489 18.4011 18.4841 18.3636L18.4864 18.3612C18.5638 18.2839 18.6388 18.2042 18.7114 18.1245L18.7138 18.1222C18.7489 18.0823 18.7864 18.0448 18.8216 18.005C18.8216 18.0026 18.8239 18.0026 18.8239 18.0003C18.8567 17.9651 18.8896 17.9276 18.92 17.8901C18.9294 17.8784 18.9388 17.869 18.9481 17.8573C18.9746 17.8291 19.0004 17.8002 19.0255 17.7706ZM19.1216 14.4284C18.7981 15.1925 18.3716 15.9003 17.8513 16.5425C17.2653 16.036 16.6246 15.5966 15.9411 15.2323C16.213 14.1331 16.3817 12.9261 16.4263 11.6558L19.7896 11.6558C19.7192 12.6144 19.4942 13.5448 19.1216 14.4284ZM19.7896 10.3433L16.4263 10.3433C16.3817 9.07295 16.213 7.86592 15.9411 6.7667C16.6278 6.40107 17.2677 5.96045 17.8513 5.45654C18.9823 6.84867 19.6588 8.55436 19.7896 10.3433ZM14.4294 2.87842C15.3599 3.27217 16.206 3.81592 16.9513 4.50029C16.5183 4.86895 16.0523 5.1969 15.5591 5.47998C15.1911 4.42529 14.72 3.50889 14.1716 2.77529C14.2583 2.80811 14.345 2.84326 14.4294 2.87842ZM12.306 19.2987C12.0903 19.4675 11.8747 19.5964 11.6567 19.6831L11.6567 15.3354C12.5867 15.4003 13.5013 15.6074 14.3685 15.9495C14.1739 16.5261 13.9489 17.0581 13.6888 17.5386C13.281 18.2979 12.8028 18.905 12.306 19.2987ZM13.6888 4.46045C13.9466 4.94326 14.1739 5.47529 14.3685 6.04951C13.5013 6.3916 12.5867 6.59869 11.6567 6.66357V2.31826C11.8724 2.40498 12.0903 2.53154 12.306 2.70264C12.8028 3.09404 13.281 3.70107 13.6888 4.46045ZM11.6567 14.0206V11.6558H15.1138C15.0763 12.6917 14.9474 13.6972 14.7317 14.6511L14.7247 14.6792C13.7411 14.3062 12.7068 14.0842 11.6567 14.0206ZM11.6567 10.3433V7.97842C12.7302 7.91279 13.7614 7.68545 14.7247 7.31982L14.7317 7.34795C14.9474 8.30186 15.0763 9.30498 15.1138 10.3433H11.6567ZM10.3442 11.6558V14.0206C9.2708 14.0862 8.23955 14.3136 7.27627 14.6792L7.26924 14.6511C7.05361 13.6972 6.92471 12.694 6.88721 11.6558H10.3442ZM6.88721 10.3433C6.92471 9.30732 7.05361 8.30186 7.26924 7.34795L7.27627 7.31982C8.23955 7.68545 9.26846 7.91279 10.3442 7.97842V10.3433H6.88721ZM10.3442 15.3354L10.3442 19.6808C10.1286 19.594 9.91064 19.4675 9.69502 19.2964C9.19814 18.905 8.71768 18.2956 8.30986 17.5362C8.05205 17.0534 7.82471 16.5214 7.63018 15.9472C8.50205 15.605 9.40908 15.4011 10.3442 15.3354ZM10.3442 6.66357C9.41426 6.59869 8.49973 6.3916 7.63252 6.04951C7.82705 5.47295 8.05205 4.94092 8.31221 4.46045C8.72002 3.70107 9.19814 3.0917 9.69736 2.70029C9.91299 2.53154 10.1286 2.40264 10.3466 2.31592V6.66357H10.3442ZM7.57158 2.87842C7.6583 2.84326 7.74268 2.80811 7.82939 2.77529C7.28096 3.50889 6.80986 4.42529 6.44189 5.47998C5.94971 5.19873 5.4833 4.87061 5.04971 4.50029C5.79502 3.81592 6.64111 3.27217 7.57158 2.87842ZM2.87939 7.57061C3.20283 6.80654 3.62939 6.09873 4.14971 5.45654C4.7333 5.96045 5.37314 6.40107 6.05986 6.7667C5.78799 7.86592 5.61924 9.07295 5.57471 10.3433H2.21143C2.28174 9.38467 2.50674 8.4542 2.87939 7.57061ZM2.21143 11.6558H5.57471C5.61924 12.9261 5.78799 14.1331 6.05986 15.2323C5.37638 15.5966 4.73569 16.036 4.14971 16.5425C3.01868 15.1504 2.34213 13.4447 2.21143 11.6558ZM7.57158 19.1206C6.64111 18.7269 5.79502 18.1831 5.04971 17.4987C5.4833 17.1284 5.94971 16.8026 6.44189 16.519C6.80986 17.5737 7.28096 18.4901 7.82939 19.2237C7.74268 19.1909 7.65596 19.1558 7.57158 19.1206ZM14.4294 19.1206C14.3427 19.1558 14.2583 19.1909 14.1716 19.2237C14.72 18.4901 15.1911 17.5737 15.5591 16.519C16.0513 16.8003 16.5177 17.1284 16.9513 17.4987C16.2101 18.1803 15.357 18.7289 14.4294 19.1206Z" fill="#0738B4" fill-opacity="0.31"/>
<path d="M19.0255 17.7706C19.0302 17.7636 19.0372 17.7565 19.0419 17.7495C20.577 15.9237 21.5005 13.5706 21.5005 10.9995C21.5005 8.42842 20.5771 6.07529 19.0442 4.24951C19.0396 4.24248 19.0325 4.23779 19.0278 4.23076C19.0021 4.20029 18.9786 4.17217 18.9528 4.14404C18.9435 4.13232 18.9341 4.12295 18.9247 4.11123L18.8286 4.00107L18.8263 3.99873C18.7911 3.95889 18.7536 3.91904 18.7185 3.8792L18.7161 3.87686C18.6411 3.79717 18.5661 3.71748 18.4888 3.64014L18.4864 3.63779L18.3739 3.52529L18.3669 3.51826C18.3317 3.48311 18.2966 3.45029 18.2614 3.41748C18.2497 3.40576 18.238 3.39404 18.2239 3.38232C18.2005 3.35889 18.1771 3.33779 18.1536 3.3167C18.1466 3.30967 18.1372 3.30264 18.1302 3.29326C16.2599 1.55889 13.7544 0.499512 11.0005 0.499512C8.24658 0.499512 5.74111 1.55889 3.86846 3.29326C3.86143 3.30029 3.85205 3.30732 3.84502 3.3167C3.82158 3.33779 3.79814 3.36123 3.77471 3.38467C3.76299 3.39639 3.75127 3.40811 3.73721 3.41982C3.70205 3.45264 3.66689 3.48779 3.63174 3.52061L3.62471 3.52764L3.51221 3.64014L3.50986 3.64248C3.43252 3.71982 3.35752 3.79951 3.28252 3.8792L3.28018 3.88154C3.24268 3.92139 3.20752 3.96123 3.17236 4.00107L3.17002 4.00342C3.13721 4.03857 3.10439 4.07607 3.07393 4.11357C3.06455 4.12529 3.05518 4.13467 3.0458 4.14639C3.02002 4.17451 2.99658 4.20498 2.9708 4.23311C2.96611 4.24014 2.95908 4.24482 2.95439 4.25186C1.42393 6.07529 0.500488 8.42842 0.500488 10.9995C0.500488 13.5706 1.42393 15.9237 2.95674 17.7495C2.96143 17.7565 2.96846 17.7636 2.97314 17.7706L3.0458 17.8573C3.05518 17.869 3.06455 17.8784 3.07393 17.8901L3.17002 18.0003C3.17002 18.0026 3.17236 18.0026 3.17236 18.005C3.20752 18.0448 3.24268 18.0847 3.28018 18.1222L3.28252 18.1245C3.35752 18.2042 3.43252 18.2839 3.50752 18.3612L3.50986 18.3636C3.54736 18.4011 3.58252 18.4386 3.62002 18.4737L3.62705 18.4808C3.70439 18.5581 3.78408 18.6331 3.86377 18.7058C5.74111 20.4401 8.24658 21.4995 11.0005 21.4995C13.7544 21.4995 16.2599 20.4401 18.1325 18.7058C18.2124 18.6326 18.2905 18.5576 18.3669 18.4808L18.3739 18.4737C18.4114 18.4362 18.4489 18.4011 18.4841 18.3636L18.4864 18.3612C18.5638 18.2839 18.6388 18.2042 18.7114 18.1245L18.7138 18.1222C18.7489 18.0823 18.7864 18.0448 18.8216 18.005C18.8216 18.0026 18.8239 18.0026 18.8239 18.0003C18.8567 17.9651 18.8896 17.9276 18.92 17.8901C18.9294 17.8784 18.9388 17.869 18.9481 17.8573C18.9746 17.8291 19.0004 17.8002 19.0255 17.7706ZM19.1216 14.4284C18.7981 15.1925 18.3716 15.9003 17.8513 16.5425C17.2653 16.036 16.6246 15.5966 15.9411 15.2323C16.213 14.1331 16.3817 12.9261 16.4263 11.6558L19.7896 11.6558C19.7192 12.6144 19.4942 13.5448 19.1216 14.4284ZM19.7896 10.3433L16.4263 10.3433C16.3817 9.07295 16.213 7.86592 15.9411 6.7667C16.6278 6.40107 17.2677 5.96045 17.8513 5.45654C18.9823 6.84867 19.6588 8.55436 19.7896 10.3433ZM14.4294 2.87842C15.3599 3.27217 16.206 3.81592 16.9513 4.50029C16.5183 4.86895 16.0523 5.1969 15.5591 5.47998C15.1911 4.42529 14.72 3.50889 14.1716 2.77529C14.2583 2.80811 14.345 2.84326 14.4294 2.87842ZM12.306 19.2987C12.0903 19.4675 11.8747 19.5964 11.6567 19.6831L11.6567 15.3354C12.5867 15.4003 13.5013 15.6074 14.3685 15.9495C14.1739 16.5261 13.9489 17.0581 13.6888 17.5386C13.281 18.2979 12.8028 18.905 12.306 19.2987ZM13.6888 4.46045C13.9466 4.94326 14.1739 5.47529 14.3685 6.04951C13.5013 6.3916 12.5867 6.59869 11.6567 6.66357V2.31826C11.8724 2.40498 12.0903 2.53154 12.306 2.70264C12.8028 3.09404 13.281 3.70107 13.6888 4.46045ZM11.6567 14.0206V11.6558H15.1138C15.0763 12.6917 14.9474 13.6972 14.7317 14.6511L14.7247 14.6792C13.7411 14.3062 12.7068 14.0842 11.6567 14.0206ZM11.6567 10.3433V7.97842C12.7302 7.91279 13.7614 7.68545 14.7247 7.31982L14.7317 7.34795C14.9474 8.30186 15.0763 9.30498 15.1138 10.3433H11.6567ZM10.3442 11.6558V14.0206C9.2708 14.0862 8.23955 14.3136 7.27627 14.6792L7.26924 14.6511C7.05361 13.6972 6.92471 12.694 6.88721 11.6558H10.3442ZM6.88721 10.3433C6.92471 9.30732 7.05361 8.30186 7.26924 7.34795L7.27627 7.31982C8.23955 7.68545 9.26846 7.91279 10.3442 7.97842V10.3433H6.88721ZM10.3442 15.3354L10.3442 19.6808C10.1286 19.594 9.91064 19.4675 9.69502 19.2964C9.19814 18.905 8.71768 18.2956 8.30986 17.5362C8.05205 17.0534 7.82471 16.5214 7.63018 15.9472C8.50205 15.605 9.40908 15.4011 10.3442 15.3354ZM10.3442 6.66357C9.41426 6.59869 8.49973 6.3916 7.63252 6.04951C7.82705 5.47295 8.05205 4.94092 8.31221 4.46045C8.72002 3.70107 9.19814 3.0917 9.69736 2.70029C9.91299 2.53154 10.1286 2.40264 10.3466 2.31592V6.66357H10.3442ZM7.57158 2.87842C7.6583 2.84326 7.74268 2.80811 7.82939 2.77529C7.28096 3.50889 6.80986 4.42529 6.44189 5.47998C5.94971 5.19873 5.4833 4.87061 5.04971 4.50029C5.79502 3.81592 6.64111 3.27217 7.57158 2.87842ZM2.87939 7.57061C3.20283 6.80654 3.62939 6.09873 4.14971 5.45654C4.7333 5.96045 5.37314 6.40107 6.05986 6.7667C5.78799 7.86592 5.61924 9.07295 5.57471 10.3433H2.21143C2.28174 9.38467 2.50674 8.4542 2.87939 7.57061ZM2.21143 11.6558H5.57471C5.61924 12.9261 5.78799 14.1331 6.05986 15.2323C5.37638 15.5966 4.73569 16.036 4.14971 16.5425C3.01868 15.1504 2.34213 13.4447 2.21143 11.6558ZM7.57158 19.1206C6.64111 18.7269 5.79502 18.1831 5.04971 17.4987C5.4833 17.1284 5.94971 16.8026 6.44189 16.519C6.80986 17.5737 7.28096 18.4901 7.82939 19.2237C7.74268 19.1909 7.65596 19.1558 7.57158 19.1206ZM14.4294 19.1206C14.3427 19.1558 14.2583 19.1909 14.1716 19.2237C14.72 18.4901 15.1911 17.5737 15.5591 16.519C16.0513 16.8003 16.5177 17.1284 16.9513 17.4987C16.2101 18.1803 15.357 18.7289 14.4294 19.1206Z" fill="black" fill-opacity="0.22"/>
</svg>
